<svg width="20" height="16" viewBox="0 0 20 16" fill="none" xmlns="http://www.w3.org/2000/svg">
<path d="M18.2667 -4.95911e-05H1.73333C1.24444 -4.95911e-05 0.833333 0.166617 0.5 0.49995C0.166667 0.833283 0 1.2444 0 1.73328V13.4666C0 13.9555 0.166667 14.3666 0.5 14.7C0.833333 15.0333 1.24444 15.2 1.73333 15.2H18.2667C18.7556 15.2 19.1667 15.0333 19.5 14.7C19.8333 14.3666 20 13.9555 20 13.4666V1.73328C20 1.2444 19.8333 0.833283 19.5 0.49995C19.1667 0.166617 18.7556 -4.95911e-05 18.2667 -4.95911e-05ZM18 1.13328L10.0667 9.13328L2 1.13328H18ZM1.2 13.2V1.99995L6.8 7.59995L1.2 13.2ZM2 14.0666L7.66667 8.39995L9.6 10.3333C9.73333 10.4666 9.87778 10.5333 10.0333 10.5333C10.1889 10.5333 10.3333 10.4666 10.4667 10.3333L12.4 8.39995L18 14.0666H2ZM18.8 13.2L13.2 7.59995L18.8 1.99995V13.2Z" fill="#404A3D"/>
</svg>
