<svg width="52" height="42" viewBox="0 0 52 42" fill="none" xmlns="http://www.w3.org/2000/svg">
<path d="M6.23333 39.6916H2.2C1.58889 39.6916 1.06944 39.4777 0.641667 39.0499C0.213889 38.6222 0 38.1027 0 37.4916V20.6249C0 20.0138 0.213889 19.4944 0.641667 19.0666C1.06944 18.6388 1.58889 18.4249 2.2 18.4249H6.23333C6.84444 18.4249 7.36389 18.6388 7.79167 19.0666C8.21944 19.4944 8.43333 20.0138 8.43333 20.6249V37.4916C8.43333 38.1027 8.21944 38.6222 7.79167 39.0499C7.36389 39.4777 6.84444 39.6916 6.23333 39.6916ZM2.2 19.8916C2.07778 19.8916 1.925 19.9527 1.74167 20.0749C1.55833 20.1972 1.46667 20.3805 1.46667 20.6249V37.4916C1.46667 37.736 1.55833 37.9194 1.74167 38.0416C1.925 38.1638 2.07778 38.2249 2.2 38.2249H6.23333C6.35556 38.2249 6.50833 38.1638 6.69167 38.0416C6.875 37.9194 6.96667 37.736 6.96667 37.4916V20.6249C6.96667 20.3805 6.875 20.1972 6.69167 20.0749C6.50833 19.9527 6.35556 19.8916 6.23333 19.8916H2.2ZM32.0833 32.3583H19.0667C18.8222 32.3583 18.6389 32.236 18.5167 31.9916C18.3944 31.7472 18.3944 31.5027 18.5167 31.2583C18.6389 31.0138 18.8222 30.8916 19.0667 30.8916H32.0833C32.5722 30.8916 33.0306 30.6777 33.4583 30.2499C33.8861 29.8222 34.1 29.3333 34.1 28.7833C34.1 28.2333 33.8861 27.7749 33.4583 27.4083C33.0306 27.0416 32.5722 26.8583 32.0833 26.8583H27.5C25.7889 26.8583 24.3833 26.2166 23.2833 24.9333C22.1833 23.6499 20.8389 23.0083 19.25 23.0083H7.7C7.45556 23.0083 7.27222 22.9472 7.15 22.8249C7.02778 22.7027 6.96667 22.5194 6.96667 22.2749C6.96667 22.0305 7.02778 21.8472 7.15 21.7249C7.27222 21.6027 7.45556 21.5416 7.7 21.5416H19.25C21.3278 21.5416 23.0389 22.336 24.3833 23.9249C25.1167 24.7805 26.1556 25.2083 27.5 25.2083H32.0833C33.0611 25.2083 33.8861 25.5749 34.5583 26.3083C35.2306 27.0416 35.5667 27.8972 35.5667 28.8749C35.5667 29.8527 35.2306 30.6777 34.5583 31.3499C33.8861 32.0222 33.0611 32.3583 32.0833 32.3583ZM25.85 41.8916C24.0167 41.8916 22.2444 41.586 20.5333 40.9749L7.33333 36.2083C7.21111 36.086 7.11944 35.9333 7.05833 35.7499C6.99722 35.5666 6.99722 35.3833 7.05833 35.1999C7.11944 35.0166 7.24167 34.8638 7.425 34.7416C7.60833 34.6194 7.76111 34.6194 7.88333 34.7416L21.0833 39.5083C22.9167 40.2416 24.7806 40.5472 26.675 40.4249C28.5694 40.3027 30.4333 39.8138 32.2667 38.9583L50.4167 29.2416C49.5611 28.386 48.5528 27.836 47.3917 27.5916C46.2306 27.3472 45.1 27.4694 44 27.9583L34.2833 31.4416C34.0389 31.5638 33.7944 31.5333 33.55 31.3499C33.3056 31.1666 33.2139 30.9222 33.275 30.6166C33.3361 30.311 33.4889 30.0972 33.7333 29.9749L43.45 26.4916C44.7944 26.0027 46.2 25.911 47.6667 26.2166C49.1333 26.5222 50.4167 27.2249 51.5167 28.3249L51.7 28.5083C51.9444 28.7527 52.0361 29.0888 51.975 29.5166C51.9139 29.9444 51.7 30.2194 51.3333 30.3416L32.8167 40.2416C30.7389 41.3416 28.4167 41.8916 25.85 41.8916ZM40.7 28.8749C40.7 28.8749 40.6389 28.8749 40.5167 28.8749C40.3944 28.8749 40.2722 28.7833 40.15 28.5999C40.0278 28.4166 39.9667 28.2027 39.9667 27.9583L40.15 27.0416C40.15 24.8416 39.4472 22.9166 38.0417 21.2666C36.6361 19.6166 34.8944 18.5472 32.8167 18.0583C30.7389 17.5694 28.7222 17.8138 26.7667 18.7916C24.8111 19.7694 23.4056 21.236 22.55 23.1916C22.4278 23.5583 22.2444 23.7416 22 23.7416C21.7556 23.7416 21.5417 23.6194 21.3583 23.3749C21.175 23.1305 21.1444 22.886 21.2667 22.6416C22.2444 20.3194 23.8639 18.6083 26.125 17.5083C28.3861 16.4083 30.7389 16.1027 33.1833 16.5916C35.6278 17.0805 37.6444 18.3027 39.2333 20.2583C40.8222 22.2138 41.6167 24.4749 41.6167 27.0416L41.4333 28.1416C41.4333 28.386 41.3722 28.5694 41.25 28.6916C41.1278 28.8138 40.9444 28.8749 40.7 28.8749ZM31.35 17.8749C31.35 17.8749 31.2889 17.8749 31.1667 17.8749C31.0444 17.8749 30.9222 17.7833 30.8 17.5999C30.6778 17.4166 30.6167 17.2638 30.6167 17.1416C30.9833 11.2749 32.45 6.81382 35.0167 3.75827C36.4833 2.04716 38.3167 0.824936 40.5167 0.0916023C40.7611 -0.0306206 40.975 -0.0306206 41.1583 0.0916023C41.3417 0.213825 41.4639 0.3666 41.525 0.549934C41.5861 0.733269 41.5556 0.916599 41.4333 1.09993C41.3111 1.28327 41.1889 1.43604 41.0667 1.55827C39.1111 2.16938 37.4611 3.26938 36.1167 4.85827C33.7944 7.54716 32.45 11.6416 32.0833 17.1416C32.0833 17.386 31.9917 17.5694 31.8083 17.6916C31.625 17.8138 31.4722 17.8749 31.35 17.8749ZM27.6833 13.1083C26.5833 13.1083 25.5444 12.9249 24.5667 12.5583C23.2222 12.0694 22.0611 11.3055 21.0833 10.2666C20.1056 9.22771 19.4333 8.03605 19.0667 6.6916C18.8222 6.32494 18.8833 6.01938 19.25 5.77493C20.4722 5.0416 21.7861 4.61382 23.1917 4.4916C24.5972 4.36938 25.9722 4.55271 27.3167 5.0416C28.6611 5.53049 29.8222 6.29438 30.8 7.33327C31.7778 8.37215 32.45 9.56382 32.8167 10.9083C32.9389 11.3972 32.8167 11.7027 32.45 11.8249C30.9833 12.6805 29.3944 13.1083 27.6833 13.1083ZM20.5333 6.6916C21.3889 8.8916 22.8861 10.3888 25.025 11.1833C27.1639 11.9777 29.2111 11.886 31.1667 10.9083C30.4333 8.70827 28.9972 7.21104 26.8583 6.4166C24.7194 5.62215 22.6111 5.71382 20.5333 6.6916ZM39.4167 9.80827C38.1944 9.80827 37.0944 9.56382 36.1167 9.07494C35.1389 8.58605 34.2833 7.91382 33.55 7.05827C33.3056 6.6916 33.3056 6.38605 33.55 6.1416C34.2833 5.16382 35.1389 4.43049 36.1167 3.9416C37.0944 3.45271 38.1944 3.20827 39.4167 3.20827C40.5167 3.20827 41.5861 3.45271 42.625 3.9416C43.6639 4.43049 44.4889 5.16382 45.1 6.1416C45.4667 6.38605 45.4667 6.6916 45.1 7.05827C44.4889 7.91382 43.6639 8.58605 42.625 9.07494C41.5861 9.56382 40.5167 9.80827 39.4167 9.80827ZM35.2 6.50827C36.3 7.73049 37.7056 8.3416 39.4167 8.3416C41.0056 8.3416 42.4111 7.73049 43.6333 6.50827C42.4111 5.28605 41.0056 4.67493 39.4167 4.67493C37.7056 4.67493 36.3 5.28605 35.2 6.50827Z" fill="#404A3D"/>
</svg>
